solid
 facet normal  2.176154e-01 -6.901607e-01  6.901607e-01
   outer loop
     vertex  3.432501e+00  3.148125e+01  2.000000e+01
     vertex  1.883670e+00  3.099288e+01  2.000000e+01
     vertex  1.883670e+00  1.099288e+01  1.776357e-15
   endloop
 endfacet
 facet normal  9.985292e-01 -3.833721e-02  3.833721e-02
   outer loop
     vertex -3.280845e+00  2.547138e+01  2.000000e+01
     vertex -3.319858e+00  4.455248e+00  1.776357e-15
     vertex -3.280845e+00  5.471376e+00  1.776357e-15
   endloop
 endfacet
 facet normal -9.999525e-01 -6.890088e-03  6.890088e-03
   outer loop
     vertex  1.168970e+01  2.476721e+01  2.000000e+01
     vertex  1.167939e+01  2.626358e+01  2.000000e+01
     vertex  1.167939e+01  6.263583e+00  1.776357e-15
   endloop
 endfacet
 facet normal -9.729148e-01  1.634578e-01 -1.634578e-01
   outer loop
     vertex  1.142922e+01  2.321680e+01  2.000000e+01
     vertex  1.168970e+01  2.476721e+01  2.000000e+01
     vertex  1.168970e+01  4.767214e+00  1.776357e-15
   endloop
 endfacet
 facet normal -9.729148e-01  1.634578e-01 -1.634578e-01
   outer loop
     vertex  1.142922e+01  2.321680e+01  2.000000e+01
     vertex  1.168970e+01  4.767214e+00  1.776357e-15
     vertex  1.142922e+01  3.216803e+00  1.776357e-15
   endloop
 endfacet
 facet normal  1.015585e-01 -7.034507e-01  7.034507e-01
   outer loop
     vertex  4.978864e+00  3.170450e+01  2.000000e+01
     vertex  3.432501e+00  1.148125e+01  1.776357e-15
     vertex  4.978864e+00  1.170450e+01  1.776357e-15
   endloop
 endfacet
 facet normal  9.985292e-01 -3.833721e-02  3.833721e-02
   outer loop
     vertex -3.280845e+00  2.547138e+01  2.000000e+01
     vertex -3.319858e+00  2.445525e+01  2.000000e+01
     vertex -3.319858e+00  4.455248e+00  1.776357e-15
   endloop
 endfacet
 facet normal -9.014934e-01  3.060308e-01 -3.060308e-01
   outer loop
     vertex  1.090505e+01  2.167272e+01  2.000000e+01
     vertex  1.142922e+01  3.216803e+00  1.776357e-15
     vertex  1.090505e+01  1.672721e+00  1.776357e-15
   endloop
 endfacet
 facet normal  9.364948e-01 -2.479693e-01  2.479693e-01
   outer loop
     vertex -3.021190e+00  2.645200e+01  2.000000e+01
     vertex -3.280845e+00  5.471376e+00  1.776357e-15
     vertex -3.021190e+00  6.452003e+00  1.776357e-15
   endloop
 endfacet
 facet normal  1.015585e-01 -7.034507e-01  7.034507e-01
   outer loop
     vertex  4.978864e+00  3.170450e+01  2.000000e+01
     vertex  3.432501e+00  3.148125e+01  2.000000e+01
     vertex  3.432501e+00  1.148125e+01  1.776357e-15
   endloop
 endfacet
 facet normal -9.014934e-01  3.060308e-01 -3.060308e-01
   outer loop
     vertex  1.090505e+01  2.167272e+01  2.000000e+01
     vertex  1.142922e+01  2.321680e+01  2.000000e+01
     vertex  1.142922e+01  3.216803e+00  1.776357e-15
   endloop
 endfacet
 facet normal -8.022958e-01  4.220909e-01 -4.220909e-01
   outer loop
     vertex  1.013168e+01  2.020272e+01  2.000000e+01
     vertex  1.090505e+01  2.167272e+01  2.000000e+01
     vertex  1.090505e+01  1.672721e+00  1.776357e-15
   endloop
 endfacet
 facet normal -8.022958e-01  4.220909e-01 -4.220909e-01
   outer loop
     vertex  1.013168e+01  2.020272e+01  2.000000e+01
     vertex  1.090505e+01  1.672721e+00  1.776357e-15
     vertex  1.013168e+01  2.027210e-01  1.776357e-15
   endloop
 endfacet
 facet normal -2.282979e-02 -7.069225e-01  7.069225e-01
   outer loop
     vertex  6.463409e+00  3.165656e+01  2.000000e+01
     vertex  4.978864e+00  1.170450e+01  1.776357e-15
     vertex  6.463409e+00  1.165656e+01  1.776357e-15
   endloop
 endfacet
 facet normal  9.364948e-01 -2.479693e-01  2.479693e-01
   outer loop
     vertex -3.021190e+00  2.645200e+01  2.000000e+01
     vertex -3.280845e+00  2.547138e+01  2.000000e+01
     vertex -3.280845e+00  5.471376e+00  1.776357e-15
   endloop
 endfacet
 facet normal  8.256087e-01 -3.989801e-01  3.989801e-01
   outer loop
     vertex -2.571725e+00  2.738208e+01  2.000000e+01
     vertex -3.021190e+00  6.452003e+00  1.776357e-15
     vertex -2.571725e+00  7.382080e+00  1.776357e-15
   endloop
 endfacet
 facet normal -6.822960e-01  5.169488e-01 -5.169488e-01
   outer loop
     vertex  9.130974e+00  1.888194e+01  2.000000e+01
     vertex  1.013168e+01  2.027210e-01  1.776357e-15
     vertex  9.130974e+00 -1.118062e+00  1.776357e-15
   endloop
 endfacet
 facet normal -2.282979e-02 -7.069225e-01  7.069225e-01
   outer loop
     vertex  6.463409e+00  3.165656e+01  2.000000e+01
     vertex  4.978864e+00  3.170450e+01  2.000000e+01
     vertex  4.978864e+00  1.170450e+01  1.776357e-15
   endloop
 endfacet
 facet normal -1.617943e-01 -6.977903e-01  6.977903e-01
   outer loop
     vertex  7.834175e+00  3.133872e+01  2.000000e+01
     vertex  6.463409e+00  1.165656e+01  1.776357e-15
     vertex  7.834175e+00  1.133872e+01  1.776357e-15
   endloop
 endfacet
 facet normal -6.822960e-01  5.169488e-01 -5.169488e-01
   outer loop
     vertex  9.130974e+00  1.888194e+01  2.000000e+01
     vertex  1.013168e+01  2.020272e+01  2.000000e+01
     vertex  1.013168e+01  2.027210e-01  1.776357e-15
   endloop
 endfacet
 facet normal -5.404719e-01  5.949328e-01 -5.949328e-01
   outer loop
     vertex  7.932191e+00  1.779289e+01  2.000000e+01
     vertex  9.130974e+00  1.888194e+01  2.000000e+01
     vertex  9.130974e+00 -1.118062e+00  1.776357e-15
   endloop
 endfacet
 facet normal -5.404719e-01  5.949328e-01 -5.949328e-01
   outer loop
     vertex  7.932191e+00  1.779289e+01  2.000000e+01
     vertex  9.130974e+00 -1.118062e+00  1.776357e-15
     vertex  7.932191e+00 -2.207106e+00  1.776357e-15
   endloop
 endfacet
 facet normal  8.256087e-01 -3.989801e-01  3.989801e-01
   outer loop
     vertex -2.571725e+00  2.738208e+01  2.000000e+01
     vertex -3.021190e+00  2.645200e+01  2.000000e+01
     vertex -3.021190e+00  6.452003e+00  1.776357e-15
   endloop
 endfacet
 facet normal  7.084982e-01 -4.990142e-01  4.990142e-01
   outer loop
     vertex -1.961824e+00  2.824801e+01  2.000000e+01
     vertex -2.571725e+00  7.382080e+00  1.776357e-15
     vertex -1.961824e+00  8.248015e+00  1.776357e-15
   endloop
 endfacet
 facet normal -3.705351e-01  6.567738e-01 -6.567738e-01
   outer loop
     vertex  6.571967e+00  1.702549e+01  2.000000e+01
     vertex  7.932191e+00 -2.207106e+00  1.776357e-15
     vertex  6.571967e+00 -2.974510e+00  1.776357e-15
   endloop
 endfacet
 facet normal -1.617943e-01 -6.977903e-01  6.977903e-01
   outer loop
     vertex  7.834175e+00  3.133872e+01  2.000000e+01
     vertex  6.463409e+00  3.165656e+01  2.000000e+01
     vertex  6.463409e+00  1.165656e+01  1.776357e-15
   endloop
 endfacet
 facet normal -3.199592e-01 -6.699351e-01  6.699351e-01
   outer loop
     vertex  9.046579e+00  3.075968e+01  2.000000e+01
     vertex  7.834175e+00  1.133872e+01  1.776357e-15
     vertex  9.046579e+00  1.075968e+01  1.776357e-15
   endloop
 endfacet
 facet normal -3.705351e-01  6.567738e-01 -6.567738e-01
   outer loop
     vertex  6.571967e+00  1.702549e+01  2.000000e+01
     vertex  7.932191e+00  1.779289e+01  2.000000e+01
     vertex  7.932191e+00 -2.207106e+00  1.776357e-15
   endloop
 endfacet
 facet normal -1.863610e-01  6.947192e-01 -6.947192e-01
   outer loop
     vertex  5.381826e+00  1.670623e+01  2.000000e+01
     vertex  6.571967e+00 -2.974510e+00  1.776357e-15
     vertex  5.381826e+00 -3.293770e+00  1.776357e-15
   endloop
 endfacet
 facet normal  7.084982e-01 -4.990142e-01  4.990142e-01
   outer loop
     vertex -1.961824e+00  2.824801e+01  2.000000e+01
     vertex -2.571725e+00  2.738208e+01  2.000000e+01
     vertex -2.571725e+00  7.382080e+00  1.776357e-15
   endloop
 endfacet
 facet normal  4.712867e-01  6.236541e-01 -6.236541e-01
   outer loop
     vertex -1.702055e+00  2.128622e+01  2.000000e+01
     vertex -3.552714e-15  1.953993e-14  1.776357e-15
     vertex -1.702055e+00  1.286219e+00  1.776357e-15
   endloop
 endfacet
 facet normal  5.846067e-01 -5.736876e-01  5.736876e-01
   outer loop
     vertex -9.470933e-01  2.928206e+01  2.000000e+01
     vertex -1.961824e+00  8.248015e+00  1.776357e-15
     vertex -9.470933e-01  9.282059e+00  1.776357e-15
   endloop
 endfacet
 facet normal -1.863610e-01  6.947192e-01 -6.947192e-01
   outer loop
     vertex  5.381826e+00  1.670623e+01  2.000000e+01
     vertex  6.571967e+00  1.702549e+01  2.000000e+01
     vertex  6.571967e+00 -2.974510e+00  1.776357e-15
   endloop
 endfacet
 facet normal -1.126179e-02  7.070619e-01 -7.070619e-01
   outer loop
     vertex  4.350431e+00  1.668980e+01  2.000000e+01
     vertex  5.381826e+00 -3.293770e+00  1.776357e-15
     vertex  4.350431e+00 -3.310198e+00  1.776357e-15
   endloop
 endfacet
 facet normal -3.199592e-01 -6.699351e-01  6.699351e-01
   outer loop
     vertex  9.046579e+00  3.075968e+01  2.000000e+01
     vertex  7.834175e+00  3.133872e+01  2.000000e+01
     vertex  7.834175e+00  1.133872e+01  1.776357e-15
   endloop
 endfacet
 facet normal  5.846067e-01 -5.736876e-01  5.736876e-01
   outer loop
     vertex -9.470933e-01  2.928206e+01  2.000000e+01
     vertex -1.961824e+00  2.824801e+01  2.000000e+01
     vertex -1.961824e+00  8.248015e+00  1.776357e-15
   endloop
 endfacet
 facet normal -4.972495e-01 -6.134912e-01  6.134912e-01
   outer loop
     vertex  1.006343e+01  2.993550e+01  2.000000e+01
     vertex  9.046579e+00  1.075968e+01  1.776357e-15
     vertex  1.006343e+01  9.935501e+00  1.776357e-15
   endloop
 endfacet
 facet normal -1.126179e-02  7.070619e-01 -7.070619e-01
   outer loop
     vertex  4.350431e+00  1.668980e+01  2.000000e+01
     vertex  5.381826e+00  1.670623e+01  2.000000e+01
     vertex  5.381826e+00 -3.293770e+00  1.776357e-15
   endloop
 endfacet
 facet normal  1.545992e-01  6.986054e-01 -6.986054e-01
   outer loop
     vertex  3.406551e+00  1.689868e+01  2.000000e+01
     vertex  4.350431e+00 -3.310198e+00  1.776357e-15
     vertex  3.406551e+00 -3.101320e+00  1.776357e-15
   endloop
 endfacet
 facet normal  4.712867e-01  6.236541e-01 -6.236541e-01
   outer loop
     vertex -1.702055e+00  2.128622e+01  2.000000e+01
     vertex -3.552714e-15  2.000000e+01  2.000000e+01
     vertex -3.552714e-15  1.953993e-14  1.776357e-15
   endloop
 endfacet
 facet normal  1.545992e-01  6.986054e-01 -6.986054e-01
   outer loop
     vertex  3.406551e+00  1.689868e+01  2.000000e+01
     vertex  4.350431e+00  1.668980e+01  2.000000e+01
     vertex  4.350431e+00 -3.310198e+00  1.776357e-15
   endloop
 endfacet
 facet normal  3.175211e-01  6.705148e-01 -6.705148e-01
   outer loop
     vertex  2.462004e+00  1.734597e+01  2.000000e+01
     vertex  3.406551e+00  1.689868e+01  2.000000e+01
     vertex  3.406551e+00 -3.101320e+00  1.776357e-15
   endloop
 endfacet
 facet normal  6.517544e-01  5.362911e-01 -5.362911e-01
   outer loop
     vertex -2.605337e+00  2.238398e+01  2.000000e+01
     vertex -1.702055e+00  1.286219e+00  1.776357e-15
     vertex -2.605337e+00  2.383979e+00  1.776357e-15
   endloop
 endfacet
 facet normal  3.175211e-01  6.705148e-01 -6.705148e-01
   outer loop
     vertex  2.462004e+00  1.734597e+01  2.000000e+01
     vertex  3.406551e+00 -3.101320e+00  1.776357e-15
     vertex  2.462004e+00 -2.654031e+00  1.776357e-15
   endloop
 endfacet
 facet normal  4.542782e-01 -6.299331e-01  6.299331e-01
   outer loop
     vertex  3.991003e-01  3.025287e+01  2.000000e+01
     vertex -9.470933e-01  9.282059e+00  1.776357e-15
     vertex  3.991003e-01  1.025287e+01  1.776357e-15
   endloop
 endfacet
 facet normal -4.972495e-01 -6.134912e-01  6.134912e-01
   outer loop
     vertex  1.006343e+01  2.993550e+01  2.000000e+01
     vertex  9.046579e+00  3.075968e+01  2.000000e+01
     vertex  9.046579e+00  1.075968e+01  1.776357e-15
   endloop
 endfacet
 facet normal  4.760115e-01  6.218573e-01 -6.218573e-01
   outer loop
     vertex  1.531454e+00  1.805827e+01  2.000000e+01
     vertex  2.462004e+00 -2.654031e+00  1.776357e-15
     vertex  1.531454e+00 -1.941726e+00  1.776357e-15
   endloop
 endfacet
 facet normal -6.827265e-01 -5.166645e-01  5.166645e-01
   outer loop
     vertex  1.085490e+01  2.888964e+01  2.000000e+01
     vertex  1.006343e+01  9.935501e+00  1.776357e-15
     vertex  1.085490e+01  8.889638e+00  1.776357e-15
   endloop
 endfacet
 facet normal  6.517544e-01  5.362911e-01 -5.362911e-01
   outer loop
     vertex -2.605337e+00  2.238398e+01  2.000000e+01
     vertex -1.702055e+00  2.128622e+01  2.000000e+01
     vertex -1.702055e+00  1.286219e+00  1.776357e-15
   endloop
 endfacet
 facet normal  4.760115e-01  6.218573e-01 -6.218573e-01
   outer loop
     vertex  1.531454e+00  1.805827e+01  2.000000e+01
     vertex  2.462004e+00  1.734597e+01  2.000000e+01
     vertex  2.462004e+00 -2.654031e+00  1.776357e-15
   endloop
 endfacet
 facet normal  6.101627e-01  5.602238e-01 -5.602238e-01
   outer loop
     vertex  7.492302e-01  1.891023e+01  2.000000e+01
     vertex  1.531454e+00  1.805827e+01  2.000000e+01
     vertex  1.531454e+00 -1.941726e+00  1.776357e-15
   endloop
 endfacet
 facet normal  6.101627e-01  5.602238e-01 -5.602238e-01
   outer loop
     vertex  7.492302e-01  1.891023e+01  2.000000e+01
     vertex  1.531454e+00 -1.941726e+00  1.776357e-15
     vertex  7.492302e-01 -1.089774e+00  1.776357e-15
   endloop
 endfacet
 facet normal  4.542782e-01 -6.299331e-01  6.299331e-01
   outer loop
     vertex  3.991003e-01  3.025287e+01  2.000000e+01
     vertex -9.470933e-01  2.928206e+01  2.000000e+01
     vertex -9.470933e-01  9.282059e+00  1.776357e-15
   endloop
 endfacet
 facet normal  7.169722e-01  4.929254e-01 -4.929254e-01
   outer loop
     vertex -3.552714e-15  2.000000e+01  2.000000e+01
     vertex  7.492302e-01 -1.089774e+00  1.776357e-15
     vertex -3.552714e-15  1.953993e-14  1.776357e-15
   endloop
 endfacet
 facet normal  7.169722e-01  4.929254e-01 -4.929254e-01
   outer loop
     vertex -3.552714e-15  2.000000e+01  2.000000e+01
     vertex  7.492302e-01  1.891023e+01  2.000000e+01
     vertex  7.492302e-01 -1.089774e+00  1.776357e-15
   endloop
 endfacet
 facet normal -6.827265e-01 -5.166645e-01  5.166645e-01
   outer loop
     vertex  1.085490e+01  2.888964e+01  2.000000e+01
     vertex  1.006343e+01  2.993550e+01  2.000000e+01
     vertex  1.006343e+01  9.935501e+00  1.776357e-15
   endloop
 endfacet
 facet normal -8.492542e-01 -3.733413e-01  3.733413e-01
   outer loop
     vertex  1.139857e+01  2.765293e+01  2.000000e+01
     vertex  1.085490e+01  2.888964e+01  2.000000e+01
     vertex  1.085490e+01  8.889638e+00  1.776357e-15
   endloop
 endfacet
 facet normal  8.256735e-01  3.989131e-01 -3.989131e-01
   outer loop
     vertex -3.105939e+00  2.342013e+01  2.000000e+01
     vertex -2.605337e+00  2.383979e+00  1.776357e-15
     vertex -3.105939e+00  3.420127e+00  1.776357e-15
   endloop
 endfacet
 facet normal -8.492542e-01 -3.733413e-01  3.733413e-01
   outer loop
     vertex  1.139857e+01  2.765293e+01  2.000000e+01
     vertex  1.085490e+01  8.889638e+00  1.776357e-15
     vertex  1.139857e+01  7.652925e+00  1.776357e-15
   endloop
 endfacet
 facet normal  3.324256e-01 -6.668933e-01  6.668933e-01
   outer loop
     vertex  1.883670e+00  3.099288e+01  2.000000e+01
     vertex  3.991003e-01  1.025287e+01  1.776357e-15
     vertex  1.883670e+00  1.099288e+01  1.776357e-15
   endloop
 endfacet
 facet normal -9.614894e-01 -1.943426e-01  1.943426e-01
   outer loop
     vertex  1.167939e+01  2.626358e+01  2.000000e+01
     vertex  1.139857e+01  2.765293e+01  2.000000e+01
     vertex  1.139857e+01  7.652925e+00  1.776357e-15
   endloop
 endfacet
 facet normal -9.614894e-01 -1.943426e-01  1.943426e-01
   outer loop
     vertex  1.167939e+01  2.626358e+01  2.000000e+01
     vertex  1.139857e+01  7.652925e+00  1.776357e-15
     vertex  1.167939e+01  6.263583e+00  1.776357e-15
   endloop
 endfacet
 facet normal  3.324256e-01 -6.668933e-01  6.668933e-01
   outer loop
     vertex  1.883670e+00  3.099288e+01  2.000000e+01
     vertex  3.991003e-01  3.025287e+01  2.000000e+01
     vertex  3.991003e-01  1.025287e+01  1.776357e-15
   endloop
 endfacet
 facet normal  8.256735e-01  3.989131e-01 -3.989131e-01
   outer loop
     vertex -3.105939e+00  2.342013e+01  2.000000e+01
     vertex -2.605337e+00  2.238398e+01  2.000000e+01
     vertex -2.605337e+00  2.383979e+00  1.776357e-15
   endloop
 endfacet
 facet normal  9.598459e-01  1.983631e-01 -1.983631e-01
   outer loop
     vertex -3.319858e+00  2.445525e+01  2.000000e+01
     vertex -3.105939e+00  3.420127e+00  1.776357e-15
     vertex -3.319858e+00  4.455248e+00  1.776357e-15
   endloop
 endfacet
 facet normal  2.176154e-01 -6.901607e-01  6.901607e-01
   outer loop
     vertex  3.432501e+00  3.148125e+01  2.000000e+01
     vertex  1.883670e+00  1.099288e+01  1.776357e-15
     vertex  3.432501e+00  1.148125e+01  1.776357e-15
   endloop
 endfacet
 facet normal  9.598459e-01  1.983631e-01 -1.983631e-01
   outer loop
     vertex -3.319858e+00  2.445525e+01  2.000000e+01
     vertex -3.105939e+00  2.342013e+01  2.000000e+01
     vertex -3.105939e+00  3.420127e+00  1.776357e-15
   endloop
 endfacet
 facet normal -9.999525e-01 -6.890088e-03  6.890088e-03
   outer loop
     vertex  1.168970e+01  2.476721e+01  2.000000e+01
     vertex  1.167939e+01  6.263583e+00  1.776357e-15
     vertex  1.168970e+01  4.767214e+00  1.776357e-15
   endloop
 endfacet
endsolid
