solid
 facet normal -6.279052e-02 -9.980267e-01 -0.000000e+00
   outer loop
     vertex  6.279052e-01 -9.980267e+00  1.000000e+02
     vertex -1.873813e+00 -9.822873e+00  1.000000e+02
     vertex -1.873813e+00 -9.822873e+00  0.000000e+00
   endloop
 endfacet
 facet normal -6.279052e-02 -9.980267e-01  0.000000e+00
   outer loop
     vertex  6.279052e-01 -9.980267e+00  1.000000e+02
     vertex -1.873813e+00 -9.822873e+00  0.000000e+00
     vertex  6.279052e-01 -9.980267e+00  0.000000e+00
   endloop
 endfacet
 facet normal  1.873813e-01 -9.822873e-01  0.000000e+00
   outer loop
     vertex  3.090170e+00 -9.510565e+00  1.000000e+02
     vertex  6.279052e-01 -9.980267e+00  1.000000e+02
     vertex  6.279052e-01 -9.980267e+00  0.000000e+00
   endloop
 endfacet
 facet normal  1.873813e-01 -9.822873e-01  0.000000e+00
   outer loop
     vertex  3.090170e+00 -9.510565e+00  1.000000e+02
     vertex  6.279052e-01 -9.980267e+00  0.000000e+00
     vertex  3.090170e+00 -9.510565e+00  0.000000e+00
   endloop
 endfacet
 facet normal  9.921147e-01  1.253332e-01  0.000000e+00
   outer loop
     vertex  9.685832e+00  2.486899e+00  1.000000e+02
     vertex  1.000000e+01 -2.449294e-15  0.000000e+00
     vertex  9.685832e+00  2.486899e+00  0.000000e+00
   endloop
 endfacet
 facet normal  4.257793e-01 -9.048271e-01  0.000000e+00
   outer loop
     vertex  5.358268e+00 -8.443279e+00  1.000000e+02
     vertex  3.090170e+00 -9.510565e+00  1.000000e+02
     vertex  3.090170e+00 -9.510565e+00  0.000000e+00
   endloop
 endfacet
 facet normal  9.921147e-01  1.253332e-01  0.000000e+00
   outer loop
     vertex  9.685832e+00  2.486899e+00  1.000000e+02
     vertex  1.000000e+01 -2.449294e-15  1.000000e+02
     vertex  1.000000e+01 -2.449294e-15  0.000000e+00
   endloop
 endfacet
 facet normal  4.257793e-01 -9.048271e-01  0.000000e+00
   outer loop
     vertex  5.358268e+00 -8.443279e+00  1.000000e+02
     vertex  3.090170e+00 -9.510565e+00  0.000000e+00
     vertex  5.358268e+00 -8.443279e+00  0.000000e+00
   endloop
 endfacet
 facet normal  6.374240e-01 -7.705132e-01  0.000000e+00
   outer loop
     vertex  7.289686e+00 -6.845471e+00  1.000000e+02
     vertex  5.358268e+00 -8.443279e+00  1.000000e+02
     vertex  5.358268e+00 -8.443279e+00  0.000000e+00
   endloop
 endfacet
 facet normal  9.297765e-01  3.681246e-01  0.000000e+00
   outer loop
     vertex  8.763067e+00  4.817537e+00  1.000000e+02
     vertex  9.685832e+00  2.486899e+00  0.000000e+00
     vertex  8.763067e+00  4.817537e+00  0.000000e+00
   endloop
 endfacet
 facet normal  6.374240e-01 -7.705132e-01  0.000000e+00
   outer loop
     vertex  7.289686e+00 -6.845471e+00  1.000000e+02
     vertex  5.358268e+00 -8.443279e+00  0.000000e+00
     vertex  7.289686e+00 -6.845471e+00  0.000000e+00
   endloop
 endfacet
 facet normal  9.297765e-01  3.681246e-01  0.000000e+00
   outer loop
     vertex  8.763067e+00  4.817537e+00  1.000000e+02
     vertex  9.685832e+00  2.486899e+00  1.000000e+02
     vertex  9.685832e+00  2.486899e+00  0.000000e+00
   endloop
 endfacet
 facet normal  8.090170e-01 -5.877853e-01  0.000000e+00
   outer loop
     vertex  8.763067e+00 -4.817537e+00  1.000000e+02
     vertex  7.289686e+00 -6.845471e+00  0.000000e+00
     vertex  8.763067e+00 -4.817537e+00  0.000000e+00
   endloop
 endfacet
 facet normal  8.090170e-01 -5.877853e-01  0.000000e+00
   outer loop
     vertex  8.763067e+00 -4.817537e+00  1.000000e+02
     vertex  7.289686e+00 -6.845471e+00  1.000000e+02
     vertex  7.289686e+00 -6.845471e+00  0.000000e+00
   endloop
 endfacet
 facet normal  8.090170e-01  5.877853e-01  0.000000e+00
   outer loop
     vertex  7.289686e+00  6.845471e+00  1.000000e+02
     vertex  8.763067e+00  4.817537e+00  0.000000e+00
     vertex  7.289686e+00  6.845471e+00  0.000000e+00
   endloop
 endfacet
 facet normal  8.090170e-01  5.877853e-01  0.000000e+00
   outer loop
     vertex  7.289686e+00  6.845471e+00  1.000000e+02
     vertex  8.763067e+00  4.817537e+00  1.000000e+02
     vertex  8.763067e+00  4.817537e+00  0.000000e+00
   endloop
 endfacet
 facet normal  9.297765e-01 -3.681246e-01  0.000000e+00
   outer loop
     vertex  9.685832e+00 -2.486899e+00  1.000000e+02
     vertex  8.763067e+00 -4.817537e+00  1.000000e+02
     vertex  8.763067e+00 -4.817537e+00  0.000000e+00
   endloop
 endfacet
 facet normal  9.297765e-01 -3.681246e-01  0.000000e+00
   outer loop
     vertex  9.685832e+00 -2.486899e+00  1.000000e+02
     vertex  8.763067e+00 -4.817537e+00  0.000000e+00
     vertex  9.685832e+00 -2.486899e+00  0.000000e+00
   endloop
 endfacet
 facet normal  6.374240e-01  7.705132e-01  0.000000e+00
   outer loop
     vertex  5.358268e+00  8.443279e+00  1.000000e+02
     vertex  7.289686e+00  6.845471e+00  0.000000e+00
     vertex  5.358268e+00  8.443279e+00  0.000000e+00
   endloop
 endfacet
 facet normal  6.374240e-01  7.705132e-01  0.000000e+00
   outer loop
     vertex  5.358268e+00  8.443279e+00  1.000000e+02
     vertex  7.289686e+00  6.845471e+00  1.000000e+02
     vertex  7.289686e+00  6.845471e+00  0.000000e+00
   endloop
 endfacet
 facet normal  9.921147e-01 -1.253332e-01  0.000000e+00
   outer loop
     vertex  1.000000e+01 -2.449294e-15  1.000000e+02
     vertex  9.685832e+00 -2.486899e+00  0.000000e+00
     vertex  1.000000e+01 -2.449294e-15  0.000000e+00
   endloop
 endfacet
 facet normal  9.921147e-01 -1.253332e-01  0.000000e+00
   outer loop
     vertex  1.000000e+01 -2.449294e-15  1.000000e+02
     vertex  9.685832e+00 -2.486899e+00  1.000000e+02
     vertex  9.685832e+00 -2.486899e+00  0.000000e+00
   endloop
 endfacet
 facet normal  4.257793e-01  9.048271e-01  0.000000e+00
   outer loop
     vertex  3.090170e+00  9.510565e+00  1.000000e+02
     vertex  5.358268e+00  8.443279e+00  0.000000e+00
     vertex  3.090170e+00  9.510565e+00  0.000000e+00
   endloop
 endfacet
 facet normal  4.257793e-01  9.048271e-01  0.000000e+00
   outer loop
     vertex  3.090170e+00  9.510565e+00  1.000000e+02
     vertex  5.358268e+00  8.443279e+00  1.000000e+02
     vertex  5.358268e+00  8.443279e+00  0.000000e+00
   endloop
 endfacet
 facet normal  1.873813e-01  9.822873e-01  0.000000e+00
   outer loop
     vertex  6.279052e-01  9.980267e+00  1.000000e+02
     vertex  3.090170e+00  9.510565e+00  0.000000e+00
     vertex  6.279052e-01  9.980267e+00  0.000000e+00
   endloop
 endfacet
 facet normal  1.873813e-01  9.822873e-01  0.000000e+00
   outer loop
     vertex  6.279052e-01  9.980267e+00  1.000000e+02
     vertex  3.090170e+00  9.510565e+00  1.000000e+02
     vertex  3.090170e+00  9.510565e+00  0.000000e+00
   endloop
 endfacet
 facet normal -6.279052e-02  9.980267e-01  0.000000e+00
   outer loop
     vertex -1.873813e+00  9.822873e+00  1.000000e+02
     vertex  6.279052e-01  9.980267e+00  0.000000e+00
     vertex -1.873813e+00  9.822873e+00  0.000000e+00
   endloop
 endfacet
 facet normal -6.279052e-02  9.980267e-01  0.000000e+00
   outer loop
     vertex -1.873813e+00  9.822873e+00  1.000000e+02
     vertex  6.279052e-01  9.980267e+00  1.000000e+02
     vertex  6.279052e-01  9.980267e+00  0.000000e+00
   endloop
 endfacet
 facet normal -3.090170e-01  9.510565e-01  0.000000e+00
   outer loop
     vertex -4.257793e+00  9.048271e+00  1.000000e+02
     vertex -1.873813e+00  9.822873e+00  0.000000e+00
     vertex -4.257793e+00  9.048271e+00  0.000000e+00
   endloop
 endfacet
 facet normal -3.090170e-01  9.510565e-01  0.000000e+00
   outer loop
     vertex -4.257793e+00  9.048271e+00  1.000000e+02
     vertex -1.873813e+00  9.822873e+00  1.000000e+02
     vertex -1.873813e+00  9.822873e+00  0.000000e+00
   endloop
 endfacet
 facet normal -5.358268e-01  8.443279e-01  0.000000e+00
   outer loop
     vertex -6.374240e+00  7.705132e+00  1.000000e+02
     vertex -4.257793e+00  9.048271e+00  0.000000e+00
     vertex -6.374240e+00  7.705132e+00  0.000000e+00
   endloop
 endfacet
 facet normal -5.358268e-01  8.443279e-01  0.000000e+00
   outer loop
     vertex -6.374240e+00  7.705132e+00  1.000000e+02
     vertex -4.257793e+00  9.048271e+00  1.000000e+02
     vertex -4.257793e+00  9.048271e+00  0.000000e+00
   endloop
 endfacet
 facet normal -7.289686e-01  6.845471e-01  0.000000e+00
   outer loop
     vertex -8.090170e+00  5.877853e+00  1.000000e+02
     vertex -6.374240e+00  7.705132e+00  0.000000e+00
     vertex -8.090170e+00  5.877853e+00  0.000000e+00
   endloop
 endfacet
 facet normal -7.289686e-01  6.845471e-01  0.000000e+00
   outer loop
     vertex -8.090170e+00  5.877853e+00  1.000000e+02
     vertex -6.374240e+00  7.705132e+00  1.000000e+02
     vertex -6.374240e+00  7.705132e+00  0.000000e+00
   endloop
 endfacet
 facet normal -8.763067e-01  4.817537e-01  0.000000e+00
   outer loop
     vertex -9.297765e+00  3.681246e+00  1.000000e+02
     vertex -8.090170e+00  5.877853e+00  0.000000e+00
     vertex -9.297765e+00  3.681246e+00  0.000000e+00
   endloop
 endfacet
 facet normal -8.763067e-01  4.817537e-01  0.000000e+00
   outer loop
     vertex -9.297765e+00  3.681246e+00  1.000000e+02
     vertex -8.090170e+00  5.877853e+00  1.000000e+02
     vertex -8.090170e+00  5.877853e+00  0.000000e+00
   endloop
 endfacet
 facet normal -9.685832e-01  2.486899e-01  0.000000e+00
   outer loop
     vertex -9.921147e+00  1.253332e+00  1.000000e+02
     vertex -9.297765e+00  3.681246e+00  1.000000e+02
     vertex -9.297765e+00  3.681246e+00  0.000000e+00
   endloop
 endfacet
 facet normal -9.685832e-01  2.486899e-01  0.000000e+00
   outer loop
     vertex -9.921147e+00  1.253332e+00  1.000000e+02
     vertex -9.297765e+00  3.681246e+00  0.000000e+00
     vertex -9.921147e+00  1.253332e+00  0.000000e+00
   endloop
 endfacet
 facet normal -1.000000e+00  7.086536e-16  0.000000e+00
   outer loop
     vertex -9.921147e+00 -1.253332e+00  1.000000e+02
     vertex -9.921147e+00  1.253332e+00  1.000000e+02
     vertex -9.921147e+00  1.253332e+00  0.000000e+00
   endloop
 endfacet
 facet normal -1.000000e+00  7.086536e-16  0.000000e+00
   outer loop
     vertex -9.921147e+00 -1.253332e+00  1.000000e+02
     vertex -9.921147e+00  1.253332e+00  0.000000e+00
     vertex -9.921147e+00 -1.253332e+00  0.000000e+00
   endloop
 endfacet
 facet normal -9.685832e-01 -2.486899e-01 -0.000000e+00
   outer loop
     vertex -9.297765e+00 -3.681246e+00  1.000000e+02
     vertex -9.921147e+00 -1.253332e+00  1.000000e+02
     vertex -9.921147e+00 -1.253332e+00  0.000000e+00
   endloop
 endfacet
 facet normal -9.685832e-01 -2.486899e-01  0.000000e+00
   outer loop
     vertex -9.297765e+00 -3.681246e+00  1.000000e+02
     vertex -9.921147e+00 -1.253332e+00  0.000000e+00
     vertex -9.297765e+00 -3.681246e+00  0.000000e+00
   endloop
 endfacet
 facet normal -8.763067e-01 -4.817537e-01 -0.000000e+00
   outer loop
     vertex -8.090170e+00 -5.877853e+00  1.000000e+02
     vertex -9.297765e+00 -3.681246e+00  1.000000e+02
     vertex -9.297765e+00 -3.681246e+00  0.000000e+00
   endloop
 endfacet
 facet normal -8.763067e-01 -4.817537e-01  0.000000e+00
   outer loop
     vertex -8.090170e+00 -5.877853e+00  1.000000e+02
     vertex -9.297765e+00 -3.681246e+00  0.000000e+00
     vertex -8.090170e+00 -5.877853e+00  0.000000e+00
   endloop
 endfacet
 facet normal -7.289686e-01 -6.845471e-01 -0.000000e+00
   outer loop
     vertex -6.374240e+00 -7.705132e+00  1.000000e+02
     vertex -8.090170e+00 -5.877853e+00  1.000000e+02
     vertex -8.090170e+00 -5.877853e+00  0.000000e+00
   endloop
 endfacet
 facet normal -7.289686e-01 -6.845471e-01  0.000000e+00
   outer loop
     vertex -6.374240e+00 -7.705132e+00  1.000000e+02
     vertex -8.090170e+00 -5.877853e+00  0.000000e+00
     vertex -6.374240e+00 -7.705132e+00  0.000000e+00
   endloop
 endfacet
 facet normal -5.358268e-01 -8.443279e-01 -0.000000e+00
   outer loop
     vertex -4.257793e+00 -9.048271e+00  1.000000e+02
     vertex -6.374240e+00 -7.705132e+00  1.000000e+02
     vertex -6.374240e+00 -7.705132e+00  0.000000e+00
   endloop
 endfacet
 facet normal -5.358268e-01 -8.443279e-01  0.000000e+00
   outer loop
     vertex -4.257793e+00 -9.048271e+00  1.000000e+02
     vertex -6.374240e+00 -7.705132e+00  0.000000e+00
     vertex -4.257793e+00 -9.048271e+00  0.000000e+00
   endloop
 endfacet
 facet normal -3.090170e-01 -9.510565e-01 -0.000000e+00
   outer loop
     vertex -1.873813e+00 -9.822873e+00  1.000000e+02
     vertex -4.257793e+00 -9.048271e+00  1.000000e+02
     vertex -4.257793e+00 -9.048271e+00  0.000000e+00
   endloop
 endfacet
 facet normal -3.090170e-01 -9.510565e-01  0.000000e+00
   outer loop
     vertex -1.873813e+00 -9.822873e+00  1.000000e+02
     vertex -4.257793e+00 -9.048271e+00  0.000000e+00
     vertex -1.873813e+00 -9.822873e+00  0.000000e+00
   endloop
 endfacet
 facet normal -0.000000e+00 -0.000000e+00  1.000000e+00
   outer loop
     vertex  7.289686e+00  6.845471e+00  1.000000e+02
     vertex  1.000000e+01 -2.449294e-15  1.000000e+02
     vertex  9.685832e+00  2.486899e+00  1.000000e+02
   endloop
 endfacet
 facet normal -0.000000e+00 -0.000000e+00  1.000000e+00
   outer loop
     vertex  7.289686e+00  6.845471e+00  1.000000e+02
     vertex  9.685832e+00  2.486899e+00  1.000000e+02
     vertex  8.763067e+00  4.817537e+00  1.000000e+02
   endloop
 endfacet
 facet normal  0.000000e+00  0.000000e+00  1.000000e+00
   outer loop
     vertex  7.289686e+00  6.845471e+00  1.000000e+02
     vertex  5.358268e+00  8.443279e+00  1.000000e+02
     vertex  3.090170e+00  9.510565e+00  1.000000e+02
   endloop
 endfacet
 facet normal  0.000000e+00  0.000000e+00  1.000000e+00
   outer loop
     vertex  7.289686e+00  6.845471e+00  1.000000e+02
     vertex  3.090170e+00  9.510565e+00  1.000000e+02
     vertex  6.279052e-01  9.980267e+00  1.000000e+02
   endloop
 endfacet
 facet normal  0.000000e+00  0.000000e+00  1.000000e+00
   outer loop
     vertex  7.289686e+00  6.845471e+00  1.000000e+02
     vertex  6.279052e-01  9.980267e+00  1.000000e+02
     vertex -1.873813e+00  9.822873e+00  1.000000e+02
   endloop
 endfacet
 facet normal  0.000000e+00  0.000000e+00  1.000000e+00
   outer loop
     vertex  7.289686e+00  6.845471e+00  1.000000e+02
     vertex -1.873813e+00  9.822873e+00  1.000000e+02
     vertex -4.257793e+00  9.048271e+00  1.000000e+02
   endloop
 endfacet
 facet normal  0.000000e+00  0.000000e+00  1.000000e+00
   outer loop
     vertex  7.289686e+00  6.845471e+00  1.000000e+02
     vertex -4.257793e+00  9.048271e+00  1.000000e+02
     vertex -6.374240e+00  7.705132e+00  1.000000e+02
   endloop
 endfacet
 facet normal  0.000000e+00  0.000000e+00  1.000000e+00
   outer loop
     vertex  7.289686e+00  6.845471e+00  1.000000e+02
     vertex -6.374240e+00  7.705132e+00  1.000000e+02
     vertex -8.090170e+00  5.877853e+00  1.000000e+02
   endloop
 endfacet
 facet normal  0.000000e+00  0.000000e+00  1.000000e+00
   outer loop
     vertex  7.289686e+00  6.845471e+00  1.000000e+02
     vertex -8.090170e+00  5.877853e+00  1.000000e+02
     vertex -9.297765e+00  3.681246e+00  1.000000e+02
   endloop
 endfacet
 facet normal  0.000000e+00  0.000000e+00  1.000000e+00
   outer loop
     vertex  7.289686e+00  6.845471e+00  1.000000e+02
     vertex -9.297765e+00  3.681246e+00  1.000000e+02
     vertex -9.921147e+00  1.253332e+00  1.000000e+02
   endloop
 endfacet
 facet normal  0.000000e+00  0.000000e+00  1.000000e+00
   outer loop
     vertex  7.289686e+00  6.845471e+00  1.000000e+02
     vertex -9.921147e+00  1.253332e+00  1.000000e+02
     vertex -9.921147e+00 -1.253332e+00  1.000000e+02
   endloop
 endfacet
 facet normal  0.000000e+00  0.000000e+00  1.000000e+00
   outer loop
     vertex  7.289686e+00  6.845471e+00  1.000000e+02
     vertex -9.921147e+00 -1.253332e+00  1.000000e+02
     vertex -9.297765e+00 -3.681246e+00  1.000000e+02
   endloop
 endfacet
 facet normal  0.000000e+00  0.000000e+00  1.000000e+00
   outer loop
     vertex  7.289686e+00  6.845471e+00  1.000000e+02
     vertex -9.297765e+00 -3.681246e+00  1.000000e+02
     vertex -8.090170e+00 -5.877853e+00  1.000000e+02
   endloop
 endfacet
 facet normal  0.000000e+00  0.000000e+00  1.000000e+00
   outer loop
     vertex  7.289686e+00  6.845471e+00  1.000000e+02
     vertex -8.090170e+00 -5.877853e+00  1.000000e+02
     vertex -6.374240e+00 -7.705132e+00  1.000000e+02
   endloop
 endfacet
 facet normal  0.000000e+00  0.000000e+00  1.000000e+00
   outer loop
     vertex  7.289686e+00  6.845471e+00  1.000000e+02
     vertex -6.374240e+00 -7.705132e+00  1.000000e+02
     vertex -4.257793e+00 -9.048271e+00  1.000000e+02
   endloop
 endfacet
 facet normal  0.000000e+00  0.000000e+00  1.000000e+00
   outer loop
     vertex  7.289686e+00  6.845471e+00  1.000000e+02
     vertex -4.257793e+00 -9.048271e+00  1.000000e+02
     vertex -1.873813e+00 -9.822873e+00  1.000000e+02
   endloop
 endfacet
 facet normal  0.000000e+00  0.000000e+00  1.000000e+00
   outer loop
     vertex  7.289686e+00  6.845471e+00  1.000000e+02
     vertex -1.873813e+00 -9.822873e+00  1.000000e+02
     vertex  6.279052e-01 -9.980267e+00  1.000000e+02
   endloop
 endfacet
 facet normal -0.000000e+00  0.000000e+00  1.000000e+00
   outer loop
     vertex  7.289686e+00  6.845471e+00  1.000000e+02
     vertex  6.279052e-01 -9.980267e+00  1.000000e+02
     vertex  3.090170e+00 -9.510565e+00  1.000000e+02
   endloop
 endfacet
 facet normal -0.000000e+00  0.000000e+00  1.000000e+00
   outer loop
     vertex  7.289686e+00  6.845471e+00  1.000000e+02
     vertex  3.090170e+00 -9.510565e+00  1.000000e+02
     vertex  5.358268e+00 -8.443279e+00  1.000000e+02
   endloop
 endfacet
 facet normal -0.000000e+00  0.000000e+00  1.000000e+00
   outer loop
     vertex  7.289686e+00  6.845471e+00  1.000000e+02
     vertex  5.358268e+00 -8.443279e+00  1.000000e+02
     vertex  7.289686e+00 -6.845471e+00  1.000000e+02
   endloop
 endfacet
 facet normal -0.000000e+00  0.000000e+00  1.000000e+00
   outer loop
     vertex  7.289686e+00  6.845471e+00  1.000000e+02
     vertex  7.289686e+00 -6.845471e+00  1.000000e+02
     vertex  8.763067e+00 -4.817537e+00  1.000000e+02
   endloop
 endfacet
 facet normal -0.000000e+00  0.000000e+00  1.000000e+00
   outer loop
     vertex  7.289686e+00  6.845471e+00  1.000000e+02
     vertex  8.763067e+00 -4.817537e+00  1.000000e+02
     vertex  9.685832e+00 -2.486899e+00  1.000000e+02
   endloop
 endfacet
 facet normal -0.000000e+00  0.000000e+00  1.000000e+00
   outer loop
     vertex  7.289686e+00  6.845471e+00  1.000000e+02
     vertex  9.685832e+00 -2.486899e+00  1.000000e+02
     vertex  1.000000e+01 -2.449294e-15  1.000000e+02
   endloop
 endfacet
 facet normal -0.000000e+00 -0.000000e+00 -1.000000e+00
   outer loop
     vertex  9.685832e+00  2.486899e+00  0.000000e+00
     vertex  1.000000e+01 -2.449294e-15  0.000000e+00
     vertex  7.289686e+00  6.845471e+00  0.000000e+00
   endloop
 endfacet
 facet normal -0.000000e+00 -0.000000e+00 -1.000000e+00
   outer loop
     vertex  8.763067e+00  4.817537e+00  0.000000e+00
     vertex  9.685832e+00  2.486899e+00  0.000000e+00
     vertex  7.289686e+00  6.845471e+00  0.000000e+00
   endloop
 endfacet
 facet normal  0.000000e+00  0.000000e+00 -1.000000e+00
   outer loop
     vertex  3.090170e+00  9.510565e+00  0.000000e+00
     vertex  5.358268e+00  8.443279e+00  0.000000e+00
     vertex  7.289686e+00  6.845471e+00  0.000000e+00
   endloop
 endfacet
 facet normal  0.000000e+00  0.000000e+00 -1.000000e+00
   outer loop
     vertex  6.279052e-01  9.980267e+00  0.000000e+00
     vertex  3.090170e+00  9.510565e+00  0.000000e+00
     vertex  7.289686e+00  6.845471e+00  0.000000e+00
   endloop
 endfacet
 facet normal  0.000000e+00  0.000000e+00 -1.000000e+00
   outer loop
     vertex -1.873813e+00  9.822873e+00  0.000000e+00
     vertex  6.279052e-01  9.980267e+00  0.000000e+00
     vertex  7.289686e+00  6.845471e+00  0.000000e+00
   endloop
 endfacet
 facet normal  0.000000e+00  0.000000e+00 -1.000000e+00
   outer loop
     vertex -4.257793e+00  9.048271e+00  0.000000e+00
     vertex -1.873813e+00  9.822873e+00  0.000000e+00
     vertex  7.289686e+00  6.845471e+00  0.000000e+00
   endloop
 endfacet
 facet normal  0.000000e+00  0.000000e+00 -1.000000e+00
   outer loop
     vertex -6.374240e+00  7.705132e+00  0.000000e+00
     vertex -4.257793e+00  9.048271e+00  0.000000e+00
     vertex  7.289686e+00  6.845471e+00  0.000000e+00
   endloop
 endfacet
 facet normal  0.000000e+00  0.000000e+00 -1.000000e+00
   outer loop
     vertex -8.090170e+00  5.877853e+00  0.000000e+00
     vertex -6.374240e+00  7.705132e+00  0.000000e+00
     vertex  7.289686e+00  6.845471e+00  0.000000e+00
   endloop
 endfacet
 facet normal  0.000000e+00  0.000000e+00 -1.000000e+00
   outer loop
     vertex -9.297765e+00  3.681246e+00  0.000000e+00
     vertex -8.090170e+00  5.877853e+00  0.000000e+00
     vertex  7.289686e+00  6.845471e+00  0.000000e+00
   endloop
 endfacet
 facet normal  0.000000e+00  0.000000e+00 -1.000000e+00
   outer loop
     vertex -9.921147e+00  1.253332e+00  0.000000e+00
     vertex -9.297765e+00  3.681246e+00  0.000000e+00
     vertex  7.289686e+00  6.845471e+00  0.000000e+00
   endloop
 endfacet
 facet normal  0.000000e+00  0.000000e+00 -1.000000e+00
   outer loop
     vertex -9.921147e+00 -1.253332e+00  0.000000e+00
     vertex -9.921147e+00  1.253332e+00  0.000000e+00
     vertex  7.289686e+00  6.845471e+00  0.000000e+00
   endloop
 endfacet
 facet normal  0.000000e+00  0.000000e+00 -1.000000e+00
   outer loop
     vertex -9.297765e+00 -3.681246e+00  0.000000e+00
     vertex -9.921147e+00 -1.253332e+00  0.000000e+00
     vertex  7.289686e+00  6.845471e+00  0.000000e+00
   endloop
 endfacet
 facet normal  0.000000e+00  0.000000e+00 -1.000000e+00
   outer loop
     vertex -8.090170e+00 -5.877853e+00  0.000000e+00
     vertex -9.297765e+00 -3.681246e+00  0.000000e+00
     vertex  7.289686e+00  6.845471e+00  0.000000e+00
   endloop
 endfacet
 facet normal  0.000000e+00  0.000000e+00 -1.000000e+00
   outer loop
     vertex -6.374240e+00 -7.705132e+00  0.000000e+00
     vertex -8.090170e+00 -5.877853e+00  0.000000e+00
     vertex  7.289686e+00  6.845471e+00  0.000000e+00
   endloop
 endfacet
 facet normal  0.000000e+00  0.000000e+00 -1.000000e+00
   outer loop
     vertex -4.257793e+00 -9.048271e+00  0.000000e+00
     vertex -6.374240e+00 -7.705132e+00  0.000000e+00
     vertex  7.289686e+00  6.845471e+00  0.000000e+00
   endloop
 endfacet
 facet normal  0.000000e+00  0.000000e+00 -1.000000e+00
   outer loop
     vertex -1.873813e+00 -9.822873e+00  0.000000e+00
     vertex -4.257793e+00 -9.048271e+00  0.000000e+00
     vertex  7.289686e+00  6.845471e+00  0.000000e+00
   endloop
 endfacet
 facet normal  0.000000e+00  0.000000e+00 -1.000000e+00
   outer loop
     vertex  6.279052e-01 -9.980267e+00  0.000000e+00
     vertex -1.873813e+00 -9.822873e+00  0.000000e+00
     vertex  7.289686e+00  6.845471e+00  0.000000e+00
   endloop
 endfacet
 facet normal -0.000000e+00  0.000000e+00 -1.000000e+00
   outer loop
     vertex  3.090170e+00 -9.510565e+00  0.000000e+00
     vertex  6.279052e-01 -9.980267e+00  0.000000e+00
     vertex  7.289686e+00  6.845471e+00  0.000000e+00
   endloop
 endfacet
 facet normal -0.000000e+00  0.000000e+00 -1.000000e+00
   outer loop
     vertex  5.358268e+00 -8.443279e+00  0.000000e+00
     vertex  3.090170e+00 -9.510565e+00  0.000000e+00
     vertex  7.289686e+00  6.845471e+00  0.000000e+00
   endloop
 endfacet
 facet normal -0.000000e+00  0.000000e+00 -1.000000e+00
   outer loop
     vertex  7.289686e+00 -6.845471e+00  0.000000e+00
     vertex  5.358268e+00 -8.443279e+00  0.000000e+00
     vertex  7.289686e+00  6.845471e+00  0.000000e+00
   endloop
 endfacet
 facet normal -0.000000e+00  0.000000e+00 -1.000000e+00
   outer loop
     vertex  8.763067e+00 -4.817537e+00  0.000000e+00
     vertex  7.289686e+00 -6.845471e+00  0.000000e+00
     vertex  7.289686e+00  6.845471e+00  0.000000e+00
   endloop
 endfacet
 facet normal -0.000000e+00  0.000000e+00 -1.000000e+00
   outer loop
     vertex  9.685832e+00 -2.486899e+00  0.000000e+00
     vertex  8.763067e+00 -4.817537e+00  0.000000e+00
     vertex  7.289686e+00  6.845471e+00  0.000000e+00
   endloop
 endfacet
 facet normal -0.000000e+00  0.000000e+00 -1.000000e+00
   outer loop
     vertex  1.000000e+01 -2.449294e-15  0.000000e+00
     vertex  9.685832e+00 -2.486899e+00  0.000000e+00
     vertex  7.289686e+00  6.845471e+00  0.000000e+00
   endloop
 endfacet
endsolid
